<svg xmlns="http://www.w3.org/2000/svg" viewBox="0 0 512 512" role="img" aria-label="Moon maskable icon">
  <defs>
    <linearGradient id="moon-mask-fill" x1="96" y1="64" x2="448" y2="448" gradientUnits="userSpaceOnUse">
      <stop offset="0" stop-color="#ff9968"/>
      <stop offset="1" stop-color="#de6d3a"/>
    </linearGradient>
  </defs>
  <rect width="512" height="512" rx="140" fill="#0f1418"/>
  <rect x="96" y="96" width="320" height="320" rx="108" fill="url(#moon-mask-fill)"/>
  <path d="M325 177c-20.57 0-39.3 7.01-54.4 18.84-16.18-14.36-37.46-23.06-60.74-23.06-50.57 0-91.58 41.01-91.58 91.58s41.01 91.58 91.58 91.58c35 0 65.42-19.65 80.9-48.46h-49.46c-9.39 8.54-21.92 13.77-35.68 13.77-29.24 0-53.08-23.84-53.08-53.08s23.84-53.08 53.08-53.08c16.39 0 31.08 7.45 40.84 19.13l16.47 19.75 16.63-19.64c9.68-11.42 24.18-18.77 40.11-18.77 29.24 0 53.08 23.84 53.08 53.08s-23.84 53.08-53.08 53.08c-13.76 0-26.29-5.23-35.68-13.77h-49.46c15.48 28.81 45.9 48.46 80.9 48.46 50.57 0 91.58-41.01 91.58-91.58S375.57 177 325 177Z" fill="#fff8ee"/>
</svg>
