<svg xmlns="http://www.w3.org/2000/svg" viewBox="0 0 256 256" role="img" aria-label="Moon icon">
  <defs>
    <linearGradient id="moon-icon-maskable-fill" x1="32" y1="24" x2="224" y2="232" gradientUnits="userSpaceOnUse">
      <stop offset="0" stop-color="#ff9968"/>
      <stop offset="1" stop-color="#de6d3a"/>
    </linearGradient>
  </defs>
  <rect width="256" height="256" rx="64" fill="#0f1418"/>
  <rect x="28" y="28" width="200" height="200" rx="52" fill="url(#moon-icon-maskable-fill)"/>
  <path d="M162 80c-10.94 0-20.91 3.73-28.93 10.02-8.61-7.64-19.93-12.27-32.32-12.27-26.91 0-48.75 21.84-48.75 48.75s21.84 48.75 48.75 48.75c18.63 0 34.82-10.46 43.06-25.84h-26.3c-5 4.55-11.66 7.34-18.98 7.34-15.56 0-28.25-12.69-28.25-28.25s12.69-28.25 28.25-28.25c8.72 0 16.53 3.96 21.72 10.18l8.76 10.5 8.84-10.44c5.15-6.08 12.86-9.99 21.33-9.99 15.56 0 28.25 12.69 28.25 28.25s-12.69 28.25-28.25 28.25c-7.32 0-13.98-2.79-18.98-7.34h-26.3c8.24 15.38 24.43 25.84 43.06 25.84 26.91 0 48.75-21.84 48.75-48.75S188.91 80 162 80Z" fill="#fff8ee"/>
</svg>
